<svg xmlns="http://www.w3.org/2000/svg" viewBox="0 0 500 500"><g id="freepik--Floor--inject-56"><ellipse id="freepik--floor--inject-56" cx="249.81" cy="349.29" rx="238.41" ry="137.64" style="fill:#f5f5f5"></ellipse></g><g id="freepik--Shadows--inject-56"><path id="freepik--Shadow--inject-56" d="M319.58,312.24l100.48,58c4.78,2.76,12.54,2.76,17.32,0l14-8.29c4.79-2.76,4.79-7.24,0-10L350.58,293.74c-4.78-2.76-12.51-2.72-17.27.1l-13.78,8.3C314.77,305,314.8,309.48,319.58,312.24Z" style="fill:#e0e0e0"></path><path id="freepik--shadow--inject-56" d="M186.36,312.24l-100.48,58c-4.79,2.76-12.54,2.76-17.32,0l-14-8.29c-4.78-2.76-4.78-7.24,0-10l100.84-58.22c4.78-2.76,12.51-2.72,17.27.1l13.78,8.3C191.16,305,191.14,309.48,186.36,312.24Z" style="fill:#e0e0e0"></path><ellipse id="freepik--shadow--inject-56" cx="250" cy="410.98" rx="62.86" ry="34.17" style="fill:#e0e0e0"></ellipse><ellipse id="freepik--shadow--inject-56" cx="347.49" cy="373.45" rx="62.86" ry="34.17" style="fill:#e0e0e0"></ellipse><ellipse id="freepik--shadow--inject-56" cx="162.79" cy="371.11" rx="62.86" ry="34.17" style="fill:#e0e0e0"></ellipse><ellipse id="freepik--shadow--inject-56" cx="250" cy="244.47" rx="38.97" ry="21.18" style="fill:#e0e0e0"></ellipse></g><g id="freepik--Plants--inject-56"><g id="freepik--plants--inject-56"><path d="M441.89,346.66l-6.83-3.94s-1.67-14.61-.55-25.92c1.56-15.9,11.83-35,24.07-30.54S453,307,449,320.43,441.89,346.66,441.89,346.66Z" style="fill:#FF725E"></path><path d="M441.89,346.66l-6.83-3.94s-1.67-14.61-.55-25.92c1.56-15.9,11.83-35,24.07-30.54S453,307,449,320.43,441.89,346.66,441.89,346.66Z" style="opacity:0.15"></path><path d="M438.3,345h0a.41.41,0,0,0,.4-.42c-1.2-35.33,16.39-53.1,16.57-53.28a.41.41,0,1,0-.58-.58c-.18.17-18,18.2-16.81,53.88A.4.4,0,0,0,438.3,345Z" style="fill:#fff"></path><path d="M446.18,349.12l-4.86-2.81a53.65,53.65,0,0,1,4.09-22.2c4.28-10.6,14.9-19.4,20.24-17.55s5.2,5.64,2.6,9.61S449.81,329.61,446.18,349.12Z" style="fill:#FF725E"></path><path d="M443.61,348.05h0a.42.42,0,0,0,.41-.41c-.1-22.34,20.87-37.44,21.09-37.59a.41.41,0,0,0-.48-.67c-.22.15-21.54,15.5-21.44,38.26A.41.41,0,0,0,443.61,348.05Z" style="fill:#fff"></path></g><g id="freepik--plants--inject-56"><path d="M75.52,334.61l6.89-4s4.11-17.06,2.47-32.41c-2.3-21.57-16.5-29.69-21.9-27.83s-7,8.14,2,21C70.22,299,76.7,314.75,75.52,334.61Z" style="fill:#FF725E"></path><g style="opacity:0.15"><path d="M75.52,334.61l6.89-4s4.11-17.06,2.47-32.41c-2.3-21.57-16.5-29.69-21.9-27.83s-7,8.14,2,21C70.22,299,76.7,314.75,75.52,334.61Z"></path></g><path d="M78.37,326.23h-.06a.47.47,0,0,1-.38-.55c3.78-19.91-3.17-42.27-11.78-51.58a.47.47,0,0,1,0-.67.49.49,0,0,1,.68,0c8.77,9.48,15.85,32.21,12,52.4A.49.49,0,0,1,78.37,326.23Z" style="fill:#fff"></path><path d="M57.45,345.05c-1.09.55-4-1.93-4.8-2.53a10.14,10.14,0,0,1-3.16-4,9.46,9.46,0,0,1-.56-5.73,22.27,22.27,0,0,1,.88-3l1-2.89a7.7,7.7,0,0,0,.58-2.94c-.16-2-1.87-3.52-3.43-4.81-1.72-1.43-3.5-3.3-3.37-5.72a8.59,8.59,0,0,1,2.39-5c1.23-1.4,2.66-2.63,3.79-4.12a6,6,0,0,0,1.4-3.7,6.11,6.11,0,0,0-.7-2.38,34.69,34.69,0,0,1-2.33-4.84c-.5-1.72-.31-3.82,1.07-5a5.54,5.54,0,0,1,4.21-.83,9.58,9.58,0,0,1,3.8,1.56c3.73,2.33,5.69,7,9.68,8.83a40.16,40.16,0,0,0,4.87,1.45,6.12,6.12,0,0,1,3.92,3c1.35,3.06-1.61,6.6-.72,9.82.79,2.86,3.46,4.07,4.86,6.67a6.06,6.06,0,0,1,.53,3.71,17.5,17.5,0,0,1-1.86,6.12,56.17,56.17,0,0,1-3.69,5.67Z" style="fill:#FF725E"></path><path d="M68,339.54h0a.48.48,0,0,1-.44-.52c1.75-18.93-6.13-40.32-12.32-46.73a.48.48,0,1,1,.68-.67c6.32,6.54,14.37,28.29,12.6,47.49A.47.47,0,0,1,68,339.54Z" style="fill:#fff"></path><path d="M66.13,316.2a.32.32,0,0,1-.14,0,64.43,64.43,0,0,0-13.66-2.91.48.48,0,0,1-.43-.52.46.46,0,0,1,.52-.43,64.39,64.39,0,0,1,13.89,3,.47.47,0,0,1-.18.92Z" style="fill:#fff"></path></g></g><g id="freepik--Tree--inject-56"><path d="M241,124.49V242c0,1.33.88,2.67,2.65,3.69a14.15,14.15,0,0,0,12.8,0c1.77-1,2.65-2.36,2.65-3.69V124.49Z" style="fill:#b16668"></path><path d="M310,182.17,253.91,46.76H246.1L190,182.18a7.16,7.16,0,0,0,5.23,9.77l.91.19a7.16,7.16,0,0,1,5.72,7.91h0a7.17,7.17,0,0,0,9.22,7.74l2.76-.85a7.17,7.17,0,0,1,8.64,3.89l2.79,6.14a7.17,7.17,0,0,0,10.18,3.21l10.88-6.45a7.13,7.13,0,0,1,7.3,0l10.88,6.45A7.17,7.17,0,0,0,274.71,217l2.79-6.15a7.17,7.17,0,0,1,8.64-3.88l2.77.85a7.16,7.16,0,0,0,9.21-7.74h0a7.17,7.17,0,0,1,5.72-7.91l.92-.19A7.16,7.16,0,0,0,310,182.17Z" style="fill:#FF725E"></path><path d="M310,182.17,253.91,46.76H246.1L190,182.18a7.16,7.16,0,0,0,5.23,9.77l.91.19a7.16,7.16,0,0,1,5.72,7.91h0a7.17,7.17,0,0,0,9.22,7.74l2.76-.85a7.17,7.17,0,0,1,8.64,3.89l2.79,6.14a7.17,7.17,0,0,0,10.18,3.21l10.88-6.45a7.13,7.13,0,0,1,7.3,0l10.88,6.45A7.17,7.17,0,0,0,274.71,217l2.79-6.15a7.17,7.17,0,0,1,8.64-3.88l2.77.85a7.16,7.16,0,0,0,9.21-7.74h0a7.17,7.17,0,0,1,5.72-7.91l.92-.19A7.16,7.16,0,0,0,310,182.17Z" style="opacity:0.30000000000000004"></path><path d="M239.83,61.89l6.27-14.24h7.81l10.35,24.12,33.85,81.73a4.17,4.17,0,0,1-3.53,3.35h0a5.42,5.42,0,0,0-4.51,6l.12,1a5.41,5.41,0,0,1-7.3,5.69l-2.78-1.05a5.41,5.41,0,0,0-6.87,2.85l-3.44,7.72a5.43,5.43,0,0,1-7.73,2.45l-9.29-6.19a5.43,5.43,0,0,0-5.56,0l-10.37,6.19a5.42,5.42,0,0,1-7.73-2.45l-3.44-7.72a5.41,5.41,0,0,0-6.87-2.85L216,169.55a5.42,5.42,0,0,1-7.31-5.69l.12-1a5.41,5.41,0,0,0-4.5-6,4.08,4.08,0,0,1-3-2Z" style="opacity:0.1"></path><path d="M297.48,142.8,253.91,41.35H246.1L201.44,142.8c-1.61,3.26-.69,7.15,2.9,7.74a5.41,5.41,0,0,1,4.5,6l-.12,1a5.42,5.42,0,0,0,7.31,5.69l2.78-1.05a5.4,5.4,0,0,1,6.87,2.86l3.44,7.71a5.42,5.42,0,0,0,7.73,2.45L247.22,169a5.43,5.43,0,0,1,5.56,0l9.29,6.19a5.42,5.42,0,0,0,7.73-2.44l3.44-7.72a5.4,5.4,0,0,1,6.87-2.86l2.78,1.05a5.41,5.41,0,0,0,7.3-5.69l-.12-1a5.42,5.42,0,0,1,4.51-6h0C298.17,150,299.09,146.06,297.48,142.8Z" style="fill:#FF725E"></path><path d="M297.48,142.8,253.91,41.35H246.1L201.44,142.8c-1.61,3.26-.69,7.15,2.9,7.74a5.41,5.41,0,0,1,4.5,6l-.12,1a5.42,5.42,0,0,0,7.31,5.69l2.78-1.05a5.4,5.4,0,0,1,6.87,2.86l3.44,7.71a5.42,5.42,0,0,0,7.73,2.45L247.22,169a5.43,5.43,0,0,1,5.56,0l9.29,6.19a5.42,5.42,0,0,0,7.73-2.44l3.44-7.72a5.4,5.4,0,0,1,6.87-2.86l2.78,1.05a5.41,5.41,0,0,0,7.3-5.69l-.12-1a5.42,5.42,0,0,1,4.51-6h0C298.17,150,299.09,146.06,297.48,142.8Z" style="opacity:0.2"></path><path d="M246.1,41.35h7.81l31.75,73.93a5,5,0,0,1-.8.56l-.24.14a4.87,4.87,0,0,0-2.48,4.67h0a4.89,4.89,0,0,1-6.11,5.14l-1.89-.5a4.88,4.88,0,0,0-5.55,2.41l-2.6,4.85a4.88,4.88,0,0,1-6.56,2l-7.17-3.75a4.88,4.88,0,0,0-4.52,0l-7.17,3.75a4.88,4.88,0,0,1-6.56-2l-2.6-4.85a4.88,4.88,0,0,0-5.55-2.41l-1.89.5a4.89,4.89,0,0,1-6.11-5.14,4.88,4.88,0,0,0-2.47-4.67l-.25-.14a4.74,4.74,0,0,1-1.34-1.13Z" style="opacity:0.1"></path><path d="M286.62,102.9,253.87,34.05l-.25-.41a4.17,4.17,0,0,0-7.24,0l-.26.42L213.38,102.9a4.88,4.88,0,0,0,1.76,6.82l.25.14a4.87,4.87,0,0,1,2.47,4.67,4.88,4.88,0,0,0,6.11,5.13l1.89-.49a4.88,4.88,0,0,1,5.55,2.41l2.6,4.85a4.89,4.89,0,0,0,6.56,2l7.17-3.75a4.88,4.88,0,0,1,4.52,0l7.17,3.75a4.89,4.89,0,0,0,6.56-2l2.6-4.85a4.88,4.88,0,0,1,5.55-2.41l1.89.49a4.88,4.88,0,0,0,6.11-5.13h0a4.86,4.86,0,0,1,2.48-4.67l.24-.14A4.88,4.88,0,0,0,286.62,102.9Z" style="fill:#FF725E"></path><path d="M286.62,102.9,253.87,34.05l-.25-.41a4.17,4.17,0,0,0-7.24,0l-.26.42L213.38,102.9a4.88,4.88,0,0,0,1.76,6.82l.25.14a4.87,4.87,0,0,1,2.47,4.67,4.88,4.88,0,0,0,6.11,5.13l1.89-.49a4.88,4.88,0,0,1,5.55,2.41l2.6,4.85a4.89,4.89,0,0,0,6.56,2l7.17-3.75a4.88,4.88,0,0,1,4.52,0l7.17,3.75a4.89,4.89,0,0,0,6.56-2l2.6-4.85a4.88,4.88,0,0,1,5.55-2.41l1.89.49a4.88,4.88,0,0,0,6.11-5.13h0a4.86,4.86,0,0,1,2.48-4.67l.24-.14A4.88,4.88,0,0,0,286.62,102.9Z" style="opacity:0.1"></path><path d="M245.63,245.44a5.56,5.56,0,0,0-11.11,0v.31a2.85,2.85,0,0,0,1.62,2.12,8.73,8.73,0,0,0,7.87,0,2.85,2.85,0,0,0,1.62-2.12.76.76,0,0,0,0-.15A.81.81,0,0,0,245.63,245.44Z" style="fill:#37474f"></path><path d="M244,247.87a2.85,2.85,0,0,0,1.62-2.12.76.76,0,0,0,0-.15.81.81,0,0,0,0-.16,5.55,5.55,0,0,0-2.89-4.72c0,.05,2.77,3.49.74,5.78-1.39,1.59-6.19,1.88-8.3.63a4.49,4.49,0,0,0,1,.74A8.73,8.73,0,0,0,244,247.87Z" style="fill:#263238"></path><path d="M236.65,248.24a3.93,3.93,0,0,0-7.85,0v.22a2,2,0,0,0,1.14,1.49,6.12,6.12,0,0,0,5.56,0,2,2,0,0,0,1.15-1.49v-.22Z" style="fill:#455a64"></path><path d="M235.5,250a2,2,0,0,0,1.15-1.49v-.22a4,4,0,0,0-.27-1.3c.1,1.68-.7,2.7-3.18,3s-4.1-.74-4.31-1.12a2.21,2.21,0,0,0,1.05,1.11A6.12,6.12,0,0,0,235.5,250Z" style="fill:#37474f"></path><path d="M265.43,244.31a3.89,3.89,0,0,0-7.78,0,.61.61,0,0,0,0,.22,2,2,0,0,0,1.13,1.48,6.08,6.08,0,0,0,5.51,0,2,2,0,0,0,1.14-1.48.61.61,0,0,0,0-.22Z" style="fill:#455a64"></path><path d="M264.29,246a2,2,0,0,0,1.14-1.48.61.61,0,0,0,0-.22,3.66,3.66,0,0,0-.26-1.29c.1,1.67-.69,2.68-3.15,3s-4.07-.72-4.29-1.1a2.33,2.33,0,0,0,1,1.1A6.08,6.08,0,0,0,264.29,246Z" style="fill:#37474f"></path></g><g id="freepik--character-2--inject-56"><g id="freepik--character-2--inject-56"><path d="M449.35,326.33l-107.51-62.1h0l-.06,0h0c-2.81-1.58-6.66-1.34-10.92,1.12-8.59,4.95-15.55,17-15.55,26.92,0,4.95,1.74,8.43,4.54,10.06h0L426.79,364l1.38-2.3a16,16,0,0,0,4.46-1.74c8.58-4.95,15.54-17,15.54-26.92a17.2,17.2,0,0,0-.48-4Z" style="fill:#9a4a4d"></path><path d="M438,327.21c-8.59,5-15.55,17-15.55,26.93s7,13.93,15.55,9,15.54-17,15.54-26.92S446.62,322.25,438,327.21Z" style="fill:#b16668"></path><g id="freepik--Character--inject-56"><path d="M378.76,269.89c-10.2,5.83-19.57,10.34-32.94,17.83-10.43,5.85-19.06,11.11-22.15,18.64-1.51,3.7-2.68,34.49-3.87,49.76,3.8,3.27,9.72,4.21,14.13,3.15,2.62-8,5.39-16.16,7.73-24.07,2-6.87,1.93-10.18,2.48-15.63,0,0,4.58-1.7,13.94-6,8.35-3.88,30-12.51,36.27-20.87s6.43-12.17,7.84-21.23C393.14,271.2,387.71,270.33,378.76,269.89Z" style="fill:#37474f"></path><path d="M352.89,308.51c6.45-4.34,17.06-11.86,24-16.76A24.31,24.31,0,0,1,370.74,277c11.53.76,17.07,1.13,28.63,2.18-.95,2.68-.06,4-1.72,6.78-5,8.18-10,12.32-19.28,17.77-2.29,1.36-6.2,3.35-10.15,5.24s-7.68,3.4-10.14,4.55c-9.36,4.34-13.94,6-13.94,6-.55,5.45-.45,8.76-2.48,15.63-.18.59-.37,1.19-.55,1.79.93-4.26.91-10.75.33-17.93C341.13,315.17,346.44,312.85,352.89,308.51Z" style="fill:#263238"></path><path d="M422.22,279.8c.25,11.61-1.74,21.54-11.72,29-8.93,6.65-29.43,16.06-34.09,20.81-.57,6.1-1.56,10.24-4.19,17.62-2.52,7.06-5.23,15.35-8.73,22.71a17.8,17.8,0,0,1-13.07-1.32c1.08-15.66-1.21-43,3.28-51.4,4.75-8.87,17.91-15.25,28.12-25.23-7.5-3.77-10.4-10.64-11.58-17.35C389.67,275.55,402.75,278.6,422.22,279.8Z" style="fill:#37474f"></path></g><path d="M366.54,384.77a2,2,0,0,1,.43,1.64,2.47,2.47,0,0,1-.76,2.23,12.37,12.37,0,0,1-4,2.75,16.62,16.62,0,0,0-5.36,3.85,18.07,18.07,0,0,1-6.7,5.05,20.47,20.47,0,0,1-11.23.53c-3.23-.84-6.07-2-8-3.8-.8-.76-.54-3.26-.37-5.23C343.45,390.62,354.3,389.51,366.54,384.77Z" style="fill:#263238"></path><path d="M350.74,358.55c-2.14.13-1.22,4.33-1,7.78.2,2.95.6,9.21-1.3,11.89-2.49,3.53-5.86,6.95-9.94,8.27s-8.06,2.39-8.39,6c-.24,2.84,3.32,4.42,7.2,5.79s12.15,1.33,15.35-1.71,5.89-5.58,8.5-6.9a11.72,11.72,0,0,0,5.31-4.5c.64-4-1.23-6.12-1.06-9.71A61.55,61.55,0,0,1,368.15,363c.86-2.55.42-2.81-.48-3.07-.24.6-.36.94-.55,1.44-2.11,1.78-5.68,2.23-8.26,2-2.27-.2-6.47-1.06-8.14-2.91C350.71,359.86,350.75,359.23,350.74,358.55Z" style="fill:#FF725E"></path><path d="M350.74,358.55c-2.14.13-1.22,4.33-1,7.78.2,2.95.6,9.21-1.3,11.89-2.49,3.53-5.86,6.95-9.94,8.27s-8.06,2.39-8.39,6c-.24,2.84,3.32,4.42,7.2,5.79s12.15,1.33,15.35-1.71,5.89-5.58,8.5-6.9a11.72,11.72,0,0,0,5.31-4.5c.64-4-1.23-6.12-1.06-9.71A61.55,61.55,0,0,1,368.15,363c.86-2.55.42-2.81-.48-3.07-.24.6-.36.94-.55,1.44-2.11,1.78-5.68,2.23-8.26,2-2.27-.2-6.47-1.06-8.14-2.91C350.71,359.86,350.75,359.23,350.74,358.55Z" style="opacity:0.5"></path><path d="M336.3,373.52a2.08,2.08,0,0,1,.43,1.65,2.45,2.45,0,0,1-.77,2.23,12.52,12.52,0,0,1-4,2.75,16.62,16.62,0,0,0-5.36,3.84,18.17,18.17,0,0,1-6.7,5.06,20.48,20.48,0,0,1-11.23.52c-3.24-.84-6.08-2-8-3.8-.8-.76-.55-3.25-.37-5.22C313.2,379.37,324.05,378.26,336.3,373.52Z" style="fill:#263238"></path><path d="M320.39,347.32c-2.13.12-1.11,4.32-.88,7.76.2,2.95.61,9.22-1.29,11.9-2.5,3.52-5.87,6.95-9.94,8.26s-8.06,2.4-8.4,6c-.24,2.85,3.32,4.43,7.2,5.79s12.15,1.33,15.36-1.71,5.88-5.58,8.5-6.89a11.63,11.63,0,0,0,5.3-4.5c.64-4-1.22-6.13-1.05-9.71a60.61,60.61,0,0,1,2.71-12.48c.86-2.55.43-2.81-.47-3.07-.24.6-.36.93-.55,1.43-2.11,1.79-5.9,2.29-8.48,2.06-2.27-.2-6.45-1.14-8.12-3Z" style="fill:#FF725E"></path><path d="M320.39,347.32c-2.13.12-1.11,4.32-.88,7.76.2,2.95.61,9.22-1.29,11.9-2.5,3.52-5.87,6.95-9.94,8.26s-8.06,2.4-8.4,6c-.24,2.85,3.32,4.43,7.2,5.79s12.15,1.33,15.36-1.71,5.88-5.58,8.5-6.89a11.63,11.63,0,0,0,5.3-4.5c.64-4-1.22-6.13-1.05-9.71a60.61,60.61,0,0,1,2.71-12.48c.86-2.55.43-2.81-.47-3.07-.24.6-.36.93-.55,1.43-2.11,1.79-5.9,2.29-8.48,2.06-2.27-.2-6.45-1.14-8.12-3Z" style="opacity:0.5"></path><path d="M382.5,211.07c-4.87-.33-9.6,2.14-14.71,13.21-4.86,10.52-9.74,21.05-9.74,21.05L322.47,249,334,260.7s32.65,2.14,35.88,1.37,15-26.88,15-26.88Z" style="fill:#37474f"></path><path d="M400.62,210.74c8.88,1.09,10.66,1.33,15.67,2.45,3.43,4.84,12.24,60.37,5.74,72.3,0,0-30.66,6.11-52.62-9.67L375.48,258l-.49-8.53a27.44,27.44,0,0,1-4.89-8.81c-1.37-4.7-.51-9.88,4.49-18.77s7.91-10.81,7.91-10.81L387,211Z" style="fill:#455a64"></path><path d="M305.29,243.57a1.29,1.29,0,0,1-1.08,1.48,1.29,1.29,0,1,1-.39-2.56A1.29,1.29,0,0,1,305.29,243.57Z" style="fill:#263238"></path><path d="M300.31,239.16a1.29,1.29,0,1,1-1.47-1.08A1.29,1.29,0,0,1,300.31,239.16Z" style="fill:#263238"></path><path d="M295.14,233.32a1.29,1.29,0,1,1-1.48-1.08A1.3,1.3,0,0,1,295.14,233.32Z" style="fill:#263238"></path><path d="M417.13,281.36c-10.29-12.82-21-8.67-26.19-11.7s-6.95-7.1-9.64-10.61c-2-2.63-10.83-12-17-7.1-1.72,1.36-9,7.2-11.11,8.91s-3.8,5-4.9,10.66c-4.44,22.82,11.66,32.44,14.8,33.67s5.77.73,10.56,5.84,11.18,23.15,23,28.3c5.38,2.35,9.11,2.06,11.79-.05,2-1.54,9.34-7.49,11.07-8.88,3.13-2.53,4.81-7.57,6-13.77C427.7,305.11,427.42,294.19,417.13,281.36Z" style="fill:#FF725E"></path><path d="M417.13,281.36c-10.29-12.82-21-8.67-26.19-11.7s-6.95-7.1-9.64-10.61c-2-2.63-10.83-12-17-7.1-1.72,1.36-9,7.2-11.11,8.91s-3.8,5-4.9,10.66c-4.44,22.82,11.66,32.44,14.8,33.67s5.77.73,10.56,5.84,11.18,23.15,23,28.3c5.38,2.35,9.11,2.06,11.79-.05,2-1.54,9.34-7.49,11.07-8.88,3.13-2.53,4.81-7.57,6-13.77C427.7,305.11,427.42,294.19,417.13,281.36Z" style="opacity:0.2"></path><path d="M396.58,339.33c5.38,2.35,9.11,2.06,11.79-.05,2-1.54,9.34-7.49,11.07-8.88,3.13-2.53,4.81-7.57,6-13.77,1.62-8.31,1.9-16.32-1.93-24.95l-41.28,33.11C386,330.71,390.56,336.7,396.58,339.33Z" style="fill:#FF725E"></path><path d="M396.58,339.33c5.38,2.35,9.11,2.06,11.79-.05,2-1.54,9.34-7.49,11.07-8.88,3.13-2.53,4.81-7.57,6-13.77,1.62-8.31,1.9-16.32-1.93-24.95l-41.28,33.11C386,330.71,390.56,336.7,396.58,339.33Z" style="opacity:0.30000000000000004"></path><path d="M392.82,337.14a19.5,19.5,0,0,0,3.76,2.19c5.38,2.35,9.11,2.06,11.79-.05,2-1.54,9.34-7.49,11.07-8.88,3.13-2.53,4.81-7.57,6-13.77a62.9,62.9,0,0,0,.94-6.42Z" style="opacity:0.15"></path><path d="M414.48,325.43c-2.24,11.51-6.12,19.05-17.9,13.9s-18.16-23.19-23-28.3-7.43-4.6-10.56-5.84-19.24-10.85-14.8-33.67,19.37-7.18,22.06-3.67,4.44,7.58,9.64,10.61,15.9-1.12,26.19,11.71S416.72,313.92,414.48,325.43Z" style="fill:#FF725E"></path><path d="M414.48,325.43c-2.24,11.51-6.12,19.05-17.9,13.9s-18.16-23.19-23-28.3-7.43-4.6-10.56-5.84-19.24-10.85-14.8-33.67,19.37-7.18,22.06-3.67,4.44,7.58,9.64,10.61,15.9-1.12,26.19,11.71S416.72,313.92,414.48,325.43Z" style="opacity:0.35000000000000003"></path><path d="M395,318.3l2.94-15.14c.53-2.71-.06-5.73-1.31-6.76s-2.71.35-3.23,3.06l-2.95,15.14c-.53,2.71.06,5.74,1.32,6.76S394.43,321,395,318.3Z" style="fill:#37474f"></path><polygon points="309.77 242.63 311.22 235.19 368.22 280.5 366.38 289.95 309.77 242.63" style="fill:#FF725E"></polygon><polygon points="309.77 242.63 311.22 235.19 368.22 280.5 366.38 289.95 309.77 242.63" style="fill:#fff;opacity:0.35000000000000003"></polygon><polygon points="308.68 243.53 310.13 236.1 367.13 281.41 365.29 290.86 308.68 243.53" style="fill:#FF725E"></polygon><path d="M367.39,295.34c3.95,3.22,7.77,2.63,8.54-1.3s-1.82-9.72-5.77-12.94-7.76-2.63-8.53,1.3S363.45,292.13,367.39,295.34Z" style="fill:#263238"></path><path d="M311.51,232.54c-1.33-3-16.84-11.81-18.56-12.78a1.22,1.22,0,0,0-1.26-.16c-.21.14-1.11.77-1.35,1a5.28,5.28,0,0,0-1.24,2.73c-.16.81-.65,3.91.92,5.61s15.81,17.09,17.77,16.79c1.1-.17,2.58-.72,4.22.62l.26-1.36,1.21-6.18,1.3-.74C313.13,236.68,312.25,234.2,311.51,232.54Z" style="fill:#455a64"></path><path d="M313.48,238.76c-1.65-1.34-2.53-3.81-3.27-5.47-1.33-3-16.84-11.82-18.56-12.79s-2.39,2-2.55,2.78-.65,3.91.92,5.61,15.81,17.09,17.77,16.79c1.1-.17,2.58-.72,4.22.62Z" style="fill:#37474f"></path><path d="M309.81,229.27a1.29,1.29,0,1,1-1.47-1.08A1.29,1.29,0,0,1,309.81,229.27Z" style="fill:#263238"></path><path d="M304.27,225.38a1.29,1.29,0,1,1-1.47-1.08A1.29,1.29,0,0,1,304.27,225.38Z" style="fill:#263238"></path><path d="M298.39,221.84a1.29,1.29,0,1,1-1.48-1.08A1.28,1.28,0,0,1,298.39,221.84Z" style="fill:#263238"></path><path d="M390.85,204.88l4.06-.62A21.34,21.34,0,0,0,412.8,180h0a23.38,23.38,0,0,0-26.64-19.6h0A23.38,23.38,0,0,0,366.55,187h0A21.35,21.35,0,0,0,390.85,204.88Z" style="fill:#263238"></path><path d="M412,165.51c-2.55,4.68-7,3.3-12,.6s-8.56-5.71-6-10.39,8.64-6.29,13.61-3.58S414.55,160.83,412,165.51Z" style="fill:#263238"></path><path d="M393.91,160.4a2.94,2.94,0,1,1-2.79-5.18Z" style="fill:#263238"></path><path d="M405.67,186.52a4.83,4.83,0,0,0-7.45,2.47s-5.31.85-12.9-2.16a20.12,20.12,0,0,1-12.15-13.56c-2.27,1.76-4.53,8.3-2.63,21.2,1.62,10.93,5.51,13.19,7.39,13.75s5.26-.34,8.54-1.32l.77,5.5c1.07,3.49,13.21,4.49,15.74-1.38l-1.76-14.24s2.88,1.65,5-1.6C408.22,192.09,408.08,188.43,405.67,186.52Z" style="fill:#ffa8a7"></path><path d="M381,189.81a1.39,1.39,0,1,0,1.28-1.54A1.41,1.41,0,0,0,381,189.81Z" style="fill:#263238"></path><path d="M383.22,199.53,380.15,201a1.67,1.67,0,0,0,2.22.89A1.78,1.78,0,0,0,383.22,199.53Z" style="fill:#f28f8f"></path><path d="M370.51,186.71l2.55-2.28a1.65,1.65,0,0,0-2.38-.19A1.8,1.8,0,0,0,370.51,186.71Z" style="fill:#263238"></path><path d="M370.91,189.88a1.39,1.39,0,1,0,1.28-1.54A1.42,1.42,0,0,0,370.91,189.88Z" style="fill:#263238"></path><polygon points="377.2 188.77 378.4 197.74 373.86 196.93 377.2 188.77" style="fill:#f28f8f"></polygon><path d="M386.47,206.9c3.46-.9,10.45-3.88,11.23-6.89a7.43,7.43,0,0,1-2.09,4c-1.93,2.13-8.83,5.12-8.83,5.12Z" style="fill:#f28f8f"></path><path d="M392,278.66c-4.19,2.55-8.87,2.29-13,3s-4.09,2.24-2.24,3.57,5.5,1.45,5.5,1.45a53.35,53.35,0,0,1-10.54,5.59c-6.1,2.4-3.73,5.29,1.08,7.93s9.46,1.2,15.85-2.22a38.77,38.77,0,0,0,10.13-8.05Z" style="fill:#ffa8a7"></path><path d="M413.41,213c9.91,0,11.92,5.49,14.72,10.34s7.69,27.78,9.16,34,.49,9.09-3.57,11.44c-3.69,2.13-34.94,22-34.94,22a10.52,10.52,0,0,1-5.15-4.94,19.12,19.12,0,0,1-2-6.86l28.15-20.94s-8.63-22.2-9-23.2C410,232.77,405.18,223,413.41,213Z" style="fill:#37474f"></path><path d="M317.78,259.92c-3.43-2.14-5.44-4.4-6-8.64-.62-4.69-.13-8,1.73-8.71s4.11.54,6.18,2.12c2.36,1.8,2.77,4.25,3.09,7.16a10.25,10.25,0,0,0,1.64,4.8l6,5.05S324.55,264.15,317.78,259.92Z" style="fill:#ffa8a7"></path><path d="M383.83,246.76s3.17,5.4,11.45,4.52c7.8-.82,10.23-4.66,11.26-7.21,0,0,0,8.3-10.55,9.67C386.14,255,383.83,246.76,383.83,246.76Z" style="fill:#263238;opacity:0.30000000000000004"></path></g></g><g id="freepik--character-1--inject-56"><g id="freepik--character-1--inject-56"><path d="M58.12,324.33l107.5-62.1h0l.06,0h0c2.81-1.58,6.67-1.34,10.93,1.12,8.58,4.95,15.54,17,15.54,26.92,0,4.95-1.73,8.43-4.54,10.06h0L80.67,362l-1.37-2.3A16,16,0,0,1,74.84,358c-8.59-4.95-15.55-17-15.55-26.92a16.65,16.65,0,0,1,.49-4Z" style="fill:#9a4a4d"></path><path d="M69.43,325.21c8.58,5,15.54,17,15.54,26.93s-7,13.93-15.54,9-15.55-17-15.55-26.92S60.84,320.25,69.43,325.21Z" style="fill:#b16668"></path><g id="freepik--character--inject-56"><path d="M130.22,211.92c8.33.2,13.35,3.86,15.38,10.55s-2.34,37.27-2,40.3,9.59,10.83,9.59,10.83l-8.92,7.17-12.71-7.87Z" style="fill:#FF725E"></path><path d="M130.22,211.92c8.33.2,13.35,3.86,15.38,10.55s-2.34,37.27-2,40.3,9.59,10.83,9.59,10.83l-8.92,7.17-12.71-7.87Z" style="opacity:0.4"></path><g id="freepik--character--inject-56"><path d="M127.3,269.79c10.56,5.15,21,8.82,30.69,15.78s19.76,9.83,23.33,17.13c1.76,3.6,5,34.24,7.14,49.4-3.58,3.52-9.43,4.85-13.89,4.08-3.15-7.87-6.44-15.77-9.3-23.51-2.48-6.72-2.6-10-3.51-15.43,0,0-4.68-1.4-14.3-5.12-8.58-3.32-30.74-10.5-37.57-18.44S102.68,282,100.68,273C109.69,272.19,118.4,270.82,127.3,269.79Z" style="fill:#37474f"></path><path d="M152.31,306.77c-6.73-3.9-16.29-10.14-23.49-14.57,4.14-5.33,7.81-10.33,9.41-17-11.46,1.52-22.76,3.56-34.23,5.37,1.13,2.61.32,4,2.16,6.66,5.5,7.84,10.83,11.63,20.4,16.46,2.38,1.21,6.41,2.93,10.49,4.56s7.88,2.89,10.41,3.87c9.62,3.72,14.3,5.12,14.3,5.12.91,5.4,1,8.71,3.51,15.43.21.58.44,1.16.66,1.75-1.2-4.19-1.62-10.67-1.51-17.87C164.48,312.64,159,310.68,152.31,306.77Z" style="fill:#263238"></path><path d="M81.24,282.68c.51,11.61,3.16,21.38,13.6,28.14,9.35,6,30.42,14.08,35.38,18.51,1,6.05,2.24,10.12,5.34,17.31,3,6.89,6.23,15,10.21,22.09,4.8.79,8.64.34,12.95-2.18-2.11-15.55-1.62-43-6.66-51.07-5.32-8.54-18.86-14-29.71-23.32a44.47,44.47,0,0,0,16.73-17.07C119.75,277.32,100.59,280.21,81.24,282.68Z" style="fill:#37474f"></path></g><path d="M143.7,383.77a2,2,0,0,0-.32,1.66,2.45,2.45,0,0,0,.91,2.18,12.63,12.63,0,0,0,4.14,2.48,16.83,16.83,0,0,1,5.61,3.48,18,18,0,0,0,7,4.61,20.53,20.53,0,0,0,11.23-.21c3.18-1.06,5.94-2.39,7.74-4.32.75-.81.33-3.28,0-5.24C167.13,388.08,156.23,387.69,143.7,383.77Z" style="fill:#263238"></path><path d="M157.74,356.57c2.14,0,1.5,4.24,1.49,7.69,0,3,0,9.23,2.08,11.78,2.72,3.36,6.31,6.55,10.46,7.6s8.2,1.86,8.77,5.43c.43,2.83-3,4.64-6.8,6.25s-12,2.13-15.43-.69-6.25-5.19-8.94-6.32a11.73,11.73,0,0,1-5.59-4.14c-.9-4,.82-6.2.41-9.77a61.63,61.63,0,0,0-3.52-12.27c-1-2.48-.61-2.78.27-3.09l.64,1.39c2.22,1.64,5.82,1.86,8.38,1.46,2.25-.34,6.39-1.47,7.93-3.43C157.86,357.87,157.78,357.24,157.74,356.57Z" style="fill:#FF725E"></path><path d="M157.74,356.57c2.14,0,1.5,4.24,1.49,7.69,0,3,0,9.23,2.08,11.78,2.72,3.36,6.31,6.55,10.46,7.6s8.2,1.86,8.77,5.43c.43,2.83-3,4.64-6.8,6.25s-12,2.13-15.43-.69-6.25-5.19-8.94-6.32a11.73,11.73,0,0,1-5.59-4.14c-.9-4,.82-6.2.41-9.77a61.63,61.63,0,0,0-3.52-12.27c-1-2.48-.61-2.78.27-3.09l.64,1.39c2.22,1.64,5.82,1.86,8.38,1.46,2.25-.34,6.39-1.47,7.93-3.43C157.86,357.87,157.78,357.24,157.74,356.57Z" style="opacity:0.5"></path><path d="M173.13,370.56a2.05,2.05,0,0,0-.31,1.66,2.45,2.45,0,0,0,.91,2.18,12.53,12.53,0,0,0,4.14,2.49,16.61,16.61,0,0,1,5.61,3.48,18.15,18.15,0,0,0,7,4.6,20.56,20.56,0,0,0,11.24-.21c3.17-1.05,5.93-2.39,7.73-4.32.75-.81.33-3.28,0-5.24C196.57,374.88,185.67,374.48,173.13,370.56Z" style="fill:#263238"></path><path d="M187.28,343.36c2.14,0,1.4,4.24,1.39,7.69,0,3,0,9.23,2.07,11.79,2.73,3.35,6.32,6.55,10.47,7.59s8.2,1.86,8.77,5.44c.43,2.82-3,4.63-6.8,6.25s-12,2.12-15.44-.7-6.24-5.18-8.93-6.32a11.68,11.68,0,0,1-5.59-4.14c-.91-4,.82-6.2.41-9.76a60.87,60.87,0,0,0-3.53-12.28c-1-2.48-.6-2.78.28-3.09l.64,1.39c2.22,1.65,6,1.9,8.6,1.5,2.24-.35,6.36-1.56,7.9-3.52Z" style="fill:#FF725E"></path><path d="M187.28,343.36c2.14,0,1.4,4.24,1.39,7.69,0,3,0,9.23,2.07,11.79,2.73,3.35,6.32,6.55,10.47,7.59s8.2,1.86,8.77,5.44c.43,2.82-3,4.63-6.8,6.25s-12,2.12-15.44-.7-6.24-5.18-8.93-6.32a11.68,11.68,0,0,1-5.59-4.14c-.91-4,.82-6.2.41-9.76a60.87,60.87,0,0,0-3.53-12.28c-1-2.48-.6-2.78.28-3.09l.64,1.39c2.22,1.65,6,1.9,8.6,1.5,2.24-.35,6.36-1.56,7.9-3.52Z" style="opacity:0.5"></path><g id="freepik--Top--inject-56"><path d="M113.64,211.06a78.39,78.39,0,0,0-18.37,2.11c-3.69,1.11-4.86,5.09-7.25,9.89-2.25,4.52-5.7,14.43-6.75,31.23-.9,14.28-1.1,32.13-1.1,32.13,7,7.65,49.12.34,57.77-10.47,0,0-.42-2.34-.69-5.67-.47-5.56-1.11-8.73,0-14.36,1.79-9.12,3.5-18.39,3.77-23.27.65-11.87-2.12-20-12.07-20.9Z" style="fill:#FF725E"></path><path d="M113.64,211.06a78.39,78.39,0,0,0-18.37,2.11c-3.69,1.11-4.86,5.09-7.25,9.89-2.25,4.52-5.7,14.43-6.75,31.23-.9,14.28-1.1,32.13-1.1,32.13,7,7.65,49.12.34,57.77-10.47,0,0-.42-2.34-.69-5.67-.47-5.56-1.11-8.73,0-14.36,1.79-9.12,3.5-18.39,3.77-23.27.65-11.87-2.12-20-12.07-20.9Z" style="opacity:0.30000000000000004"></path><ellipse cx="130.22" cy="178.84" rx="14.43" ry="13.38" transform="translate(-59.42 292.74) rotate(-84.93)" style="fill:#263238"></ellipse><path d="M102.91,185.37c-.65-7.46-.62-10.8,1.33-12.48a5.37,5.37,0,0,1,4.55-1.16l0,13.35h0l1,9.65-.56,8.33a4,4,0,0,1-3.34-2.76c-.85-2.14-2.23-10.43-2.75-13.64l-.09,0q-.06-.64-.12-1.26Z" style="fill:#263238"></path><path d="M110.11,188c-.91.44-2-1.34-3-2.55s-4.33-3.06-6.4.46.77,8.83,3.44,9.94c4.61,1.91,5.59-1.07,5.59-1.07l-1.15,17.14s1,9.27,15.21,14.23c4.48-3.94,3.13-13.36.34-14.31l.36-4.21a30,30,0,0,0,6.37.89c3.53-.23,6-2.79,7.36-6.47,2.24-5.91,3.73-10.86,3.14-22.17-.67-13-15.81-15.33-24.48-10.89S110.11,188,110.11,188Z" style="fill:#ffa8a7"></path><path d="M124.17,211.79s0,2-4.17,2.52-9.54-.46-11.38-2.44c0,0-.77,5.16,4.55,9.14a29.73,29.73,0,0,0,10.66,5.09,11.62,11.62,0,0,0,3.57-6.8C127.78,215.32,124.17,211.79,124.17,211.79Z" style="fill:#37474f"></path><path d="M110,189.41c-.43,0-1.85-2.93-2.84-4-1.38-1.5,1.65-13.67,1.65-13.67s-1.1-4.81,2.13-7.65c3.49-3.07,9.19-1.84,13.35-1.5,5.39.43,10.62,1,15.68-1.43a2.6,2.6,0,0,1,2.09-.36c2.31,1.07-.37,5.38-.89,6.72a5.33,5.33,0,0,0,2.82-1c.64-.4,1.49-1,1.6.21.4,4.72-3,8.54-7.38,9.84-3,.91-6.29.54-9.4,0-2.14-.39-4.26-1-6.4-1.3a53.21,53.21,0,0,1-5.32-1.05c-1.6-.36-2.08,1.17-3.33,5.36C112.65,183.22,111.45,189.51,110,189.41Z" style="fill:#263238"></path><path d="M108.71,172.7l-5-3.29a2.9,2.9,0,0,1,4.09-1A3.15,3.15,0,0,1,108.71,172.7Z" style="fill:#263238"></path><path d="M124.53,207.58s-6.36-2.22-9-3.91a9,9,0,0,1-3.44-4.06,12.37,12.37,0,0,0,1.75,4.58c1.77,2.72,10.46,5.46,10.46,5.46Z" style="fill:#f28f8f"></path><path d="M125.62,188.07a1.71,1.71,0,0,1-1.92,1.47,1.75,1.75,0,1,1,1.92-1.47Z" style="fill:#263238"></path><path d="M122.77,182.07l-3.36,1.82a2,2,0,0,1,.8-2.66A1.86,1.86,0,0,1,122.77,182.07Z" style="fill:#263238"></path><path d="M124.38,198.23l3.93,2.2a2.21,2.21,0,0,1-3,.95A2.35,2.35,0,0,1,124.38,198.23Z" style="fill:#f28f8f"></path><path d="M139,184.43l-3.39-1.85a1.85,1.85,0,0,1,2.56-.82A2,2,0,0,1,139,184.43Z" style="fill:#263238"></path><path d="M137.91,188.82a1.56,1.56,0,1,1-1.3-1.85A1.59,1.59,0,0,1,137.91,188.82Z" style="fill:#263238"></path><polygon points="129.91 186.95 129.01 196.34 134.13 195.42 129.91 186.95" style="fill:#f28f8f"></polygon><path d="M123.83,226.1a33.64,33.64,0,0,1-12.65-11.46,23.64,23.64,0,0,1-2.28-7c-2.17-.13-8.29.29-11.36,2.17a4.46,4.46,0,0,0-2.27,3.32l4.42-.42a10.75,10.75,0,0,1,4.72,2.51c1.31,1.36,3.39,5,9.19,8.26A21.14,21.14,0,0,0,123.83,226.1Z" style="fill:#FF725E"></path><path d="M123.83,226.1a33.64,33.64,0,0,1-12.65-11.46,23.64,23.64,0,0,1-2.28-7c-2.17-.13-8.29.29-11.36,2.17a4.46,4.46,0,0,0-2.27,3.32l4.42-.42a10.75,10.75,0,0,1,4.72,2.51c1.31,1.36,3.39,5,9.19,8.26A21.14,21.14,0,0,0,123.83,226.1Z" style="opacity:0.4"></path><path d="M123.83,226.1a10.79,10.79,0,0,0,5.06-6.28,12.41,12.41,0,0,0-.42-8.1,5.7,5.7,0,0,0-4-3.11l-.28,3.18A9.56,9.56,0,0,1,125.7,216C125.92,218.27,126.29,222.66,123.83,226.1Z" style="fill:#FF725E"></path><path d="M123.83,226.1a10.79,10.79,0,0,0,5.06-6.28,12.41,12.41,0,0,0-.42-8.1,5.7,5.7,0,0,0-4-3.11l-.28,3.18A9.56,9.56,0,0,1,125.7,216C125.92,218.27,126.29,222.66,123.83,226.1Z" style="opacity:0.4"></path><path d="M121.74,252.8h-.06a.48.48,0,0,1-.4-.55,88.34,88.34,0,0,0,.19-24.81.48.48,0,1,1,.94-.15,89.44,89.44,0,0,1-.18,25.12A.48.48,0,0,1,121.74,252.8Z" style="fill:#455a64"></path><path d="M121.11,250.39a.93.93,0,1,1,.91,1A.94.94,0,0,1,121.11,250.39Z" style="fill:#455a64"></path><path d="M127.27,258h0a.47.47,0,0,1-.41-.54,88.61,88.61,0,0,0-1.41-31.09.48.48,0,0,1,.34-.58.48.48,0,0,1,.59.34,89.59,89.59,0,0,1,1.43,31.46A.49.49,0,0,1,127.27,258Z" style="fill:#455a64"></path><path d="M126.58,255.63a.93.93,0,1,1,.91.95A.93.93,0,0,1,126.58,255.63Z" style="fill:#455a64"></path></g><path d="M149.18,274.12c2.29-2.05,4.86-3.46,8.61-1.35,4.75,2.67,7.43,5.12,6,8.91-1,2.6-3.51,9.46-7.11,11.31s-7.47,0-9.12-1.26S149.18,274.12,149.18,274.12Z" style="fill:#f28f8f"></path><path d="M205.92,231.09a76.48,76.48,0,0,0-17.9,9.78,83.88,83.88,0,0,1,5-14,107.44,107.44,0,0,0-8.52,16.29c-5.19,4.2-20.4,17.58-30,31.15-8.92,6.12-14.26,27.33-14.26,27.33.78,2.58,5.43,3.36,7,1.39,3.1-14.55,11.12-26.81,11.12-26.81s13.89-18.71,25.73-29.09a130.48,130.48,0,0,1,22.06-15.55Z" style="fill:#b16668"></path><path d="M95.27,213.17c-8.26.56-13.67,6.53-14.66,16-.92,8.61,1.62,35.55,3.69,46.34,2.57,13.33,4.87,15.6,10.39,16.37,4.17.58,37.88,3.12,42.8,2.74s11.86,2,15.29,0,4.54-6.16,6.91-9.6-1.31-8.75-1.31-8.75l-2.46,2.61c-.79.91-2.17,1.72-3.37.56s-.58-2.2.25-3.17l1.71-1.91c-1-1.07-4.24-1.59-6.61.75-2.52,2.49-4.66,4.5-9.92,4.9s-35-5.69-35-5.69l-3-34.43S100,217.36,95.27,213.17Z" style="fill:#ffa8a7"></path><path d="M96.68,213s-4.9-2.31-11.36,3.85-6.47,13.85-5.85,21.85,2.77,32,4.61,40,3.08,12.31,6.62,13.38S122,294,122,294s5.47-5.92,2.06-15.72l-20.26-4.75s-2.68-37.39-3.07-43.39S100.38,215.17,96.68,213Z" style="fill:#FF725E"></path><path d="M96.68,213s-4.9-2.31-11.36,3.85-6.47,13.85-5.85,21.85,2.77,32,4.61,40,3.08,12.31,6.62,13.38S122,294,122,294s6.4-7.09,2.06-15.72l-20.26-4.75s-2.68-37.39-3.07-43.39S100.38,215.17,96.68,213Z" style="opacity:0.4"></path><path d="M124.1,278.26S127,287.07,122,294a82.34,82.34,0,0,0,11.34.59,18.9,18.9,0,0,0,1.24-14.76A71,71,0,0,0,124.1,278.26Z" style="fill:#FF725E"></path><path d="M124.1,278.26S127,287.07,122,294a82.34,82.34,0,0,0,11.34.59,18.9,18.9,0,0,0,1.24-14.76A71,71,0,0,0,124.1,278.26Z" style="opacity:0.45"></path><path d="M195.36,232.83c.06,2.31,1.76,5.56,3.71,6.69a2.23,2.23,0,0,0,2.14,0l6.38-3.3a2.28,2.28,0,0,0,1.22-2.16,11.49,11.49,0,0,0-3.05-6.48,2.25,2.25,0,0,0-2.63-.33l-6.58,3.58A2.24,2.24,0,0,0,195.36,232.83Z" style="fill:#FF725E"></path><path d="M195.36,232.83c.06,2.31,1.76,5.56,3.71,6.69a2.23,2.23,0,0,0,2.14,0l6.38-3.3a2.28,2.28,0,0,0,1.22-2.16,11.49,11.49,0,0,0-3.05-6.48,2.25,2.25,0,0,0-2.63-.33l-6.58,3.58A2.24,2.24,0,0,0,195.36,232.83Z" style="fill:#fff;opacity:0.6000000000000001"></path><path d="M205.76,227.6a2,2,0,0,0-.84-.49c-.94-.26-1,2.29.19,4.72s3,3.91,3.62,3a2.22,2.22,0,0,0,.08-.73A11.49,11.49,0,0,0,205.76,227.6Z" style="fill:#FF725E"></path><path d="M205.76,227.6a2,2,0,0,0-.84-.49c-.94-.26-1,2.29.19,4.72s3,3.91,3.62,3a2.22,2.22,0,0,0,.08-.73A11.49,11.49,0,0,0,205.76,227.6Z" style="fill:#fff;opacity:0.75"></path><path d="M206.79,231.78c3.9-2.18,6.25-3.37,6.25-3.37-2.28.76-4.52,1.58-6.71,2.44A.88.88,0,0,0,206.79,231.78Z" style="fill:#b16668"></path></g></g></g><g id="freepik--Fire--inject-56"><g id="freepik--fire--inject-56"><path d="M239.78,400.15l37.69-21.65h0l0,0h0c1.39-.79,3.3-.67,5.41.55a17,17,0,0,1,7.69,13.32c0,2.45-.86,4.17-2.25,5h0l-37.41,21.48-.68-1.14a7.63,7.63,0,0,1-2.2-.86,17,17,0,0,1-7.7-13.32,8.5,8.5,0,0,1,.24-2Z" style="fill:#b16668"></path><path d="M245.38,400.59a17,17,0,0,1,7.69,13.33c0,4.9-3.44,6.89-7.69,4.44A17,17,0,0,1,237.69,405C237.69,400.13,241.13,398.14,245.38,400.59Z" style="fill:#9a4a4d"></path><path d="M286.06,415.12,222.53,378.5h0l0,0h0c-1.39-.79-3.3-.67-5.41.55a17,17,0,0,0-7.69,13.32c0,2.45.86,4.17,2.25,5h0l63.25,36.44.68-1.14a7.79,7.79,0,0,0,2.21-.86,17,17,0,0,0,7.69-13.32,8.34,8.34,0,0,0-.24-2Z" style="fill:#9a4a4d"></path><path d="M280.46,415.56a17,17,0,0,0-7.69,13.32c0,4.91,3.45,6.89,7.69,4.44a17,17,0,0,0,7.7-13.32C288.16,415.09,284.71,413.1,280.46,415.56Z" style="fill:#b16668"></path><path d="M214,415.09l25.84-14.9h0l0,0h0c1.39-.78,3.29-.67,5.4.55a17,17,0,0,1,7.7,13.32c0,2.45-.86,4.17-2.25,5h0l-25.56,14.72-.68-1.14a7.93,7.93,0,0,1-2.21-.85,17,17,0,0,1-7.69-13.33,8.34,8.34,0,0,1,.24-2Z" style="fill:#b16668"></path><path d="M219.62,415.53a17,17,0,0,1,7.7,13.32c0,4.91-3.45,6.9-7.69,4.44a17,17,0,0,1-7.7-13.32C211.93,415.07,215.38,413.08,219.62,415.53Z" style="fill:#9a4a4d"></path><path d="M250.29,411c-12.84,0-32.39-7.25-33.75-30.07s12.31-32.39,12.31-32.39,1.49,9.17,6.27,11.69c0,0-5.37-27,9-36.56,0,0-.95,14.07,4.79,15.3s7.92-23,2.87-34.71c0,0,8.3,3.54,13.39,16.84s3.14,34.27,3.14,34.27a16.94,16.94,0,0,0,6.56-13s10.25,19.82,8.89,38.27S267.53,411,250.29,411Z" style="fill:#FF725E"></path><path d="M250.17,400.06c-11.81,0-20.06-16.32-8.58-32.6,0,0,.67,11,6.61,11.13s6.54-20.91,5.81-25.66c0,0,10.74,13.44,10.74,27.6C264.75,390.7,261.28,400.07,250.17,400.06Z" style="fill:#fff;opacity:0.8"></path></g></g><g id="freepik--Moon--inject-56"><path id="freepik--moon--inject-56" d="M140.88,76.72a24.77,24.77,0,1,1-24-31c.54,0,1.07,0,1.6.06a19.82,19.82,0,1,0,22.38,30.93Z" style="fill:#FF725E"></path></g></svg>